<svg width="104" height="104" viewBox="0 0 104 104" fill="none" xmlns="http://www.w3.org/2000/svg">
<path d="M83.7594 48.3114C84.6816 49.9426 84.4608 51.9502 84.0197 55.9615L80.5827 87.2177C79.9593 92.8866 79.648 95.7173 77.9543 97.2087C77.3543 97.7353 76.652 98.1325 75.8914 98.3753C73.7452 99.0618 71.1554 97.8701 65.9758 95.4867L65.8972 95.4506C61.996 93.658 60.0304 92.7548 57.9594 92.6005C57.5231 92.5681 57.0804 92.5584 56.6386 92.576L62.5595 38.7324L62.7346 38.7322C65.4225 38.666 67.9516 39.8305 73.011 42.16L77.3353 44.1485C81.0032 45.8364 82.8372 46.6803 83.7594 48.3114Z" fill="#D9D9D9"/>
<path d="M19.3812 85.3329L22.8186 54.0729C23.442 48.4039 23.7533 45.5733 25.447 44.0819C26.0471 43.5553 26.7493 43.1581 27.5099 42.9152C29.6562 42.2287 32.2459 43.4205 37.4255 45.8039L37.5041 45.84C41.4053 47.6326 43.3709 48.5358 45.4419 48.69C45.8814 48.7233 46.3223 48.7315 46.7627 48.7146L40.8419 102.558L40.6663 102.562C37.9784 102.628 35.4493 101.464 30.39 99.1345L26.0656 97.1459C22.3977 95.4581 20.5637 94.6141 19.6415 92.983C18.7193 91.3518 18.9401 89.3442 19.3812 85.3329Z" fill="#D9D9D9"/>
<path d="M46.7765 48.5C46.5626 48.5463 46.4907 48.4729 46.2765 48.5L40.2519 102.997C41.9844 102.788 43.6611 101.438 46.9448 98.7931L50.8138 95.674C53.4341 93.5633 54.7442 92.5079 56.122 92.1827C56.332 92.1289 56.5475 92.0949 56.7618 92.0723L62.6095 38.8935C60.8775 39.099 59.2003 40.4524 55.917 43.0938L52.048 46.2129C49.4278 48.3237 48.1543 48.1748 46.7765 48.5Z" fill="#38405F"/>
<path d="M51.2453 1C47.1442 1.00465 43.2123 2.63589 40.3124 5.53583C37.4124 8.43578 35.7812 12.3676 35.7765 16.4688C35.7765 29.7051 49.839 39.7018 50.4385 40.1201C50.6749 40.2858 50.9566 40.3746 51.2453 40.3746C51.534 40.3746 51.8157 40.2858 52.0521 40.1201C52.6515 39.7018 66.714 29.7051 66.714 16.4688C66.7094 12.3676 65.0782 8.43578 62.1782 5.53583C59.2783 2.63589 55.3464 1.00465 51.2453 1ZM51.2453 10.8438C52.3578 10.8438 53.4454 11.1737 54.3704 11.7917C55.2954 12.4098 56.0164 13.2883 56.4421 14.3162C56.8679 15.344 56.9793 16.475 56.7622 17.5661C56.5452 18.6573 56.0094 19.6596 55.2228 20.4462C54.4361 21.2329 53.4338 21.7686 52.3427 21.9857C51.2515 22.2027 50.1205 22.0913 49.0927 21.6656C48.0649 21.2398 47.1864 20.5189 46.5683 19.5938C45.9502 18.6688 45.6203 17.5813 45.6203 16.4688C45.6203 14.9769 46.2129 13.5462 47.2678 12.4913C48.3227 11.4364 49.7534 10.8438 51.2453 10.8438Z" fill="#FF3131"/>
</svg>
