<svg width="24" height="25" viewBox="0 0 24 25" fill="none" xmlns="http://www.w3.org/2000/svg">
<path d="M22 4.6056V1.56C22 1.30539 21.8946 1.06121 21.7071 0.881178C21.5196 0.701143 21.2652 0.6 21 0.6C20.7348 0.6 20.4804 0.701143 20.2929 0.881178C20.1054 1.06121 20 1.30539 20 1.56V4.6056C19.4152 4.80407 18.9089 5.17166 18.5508 5.65776C18.1926 6.14386 18.0002 6.72458 18 7.32V12.3852L13 9.6432V6.36C13 6.10539 12.8946 5.86121 12.7071 5.68118C12.5196 5.50114 12.2652 5.4 12 5.4C11.7348 5.4 11.4804 5.50114 11.2929 5.68118C11.1054 5.86121 11 6.10539 11 6.36V9.6432L6 12.3852V7.32C5.99981 6.72458 5.80739 6.14386 5.44922 5.65776C5.09106 5.17166 4.58475 4.80407 4 4.6056V1.56C4 1.30539 3.89464 1.06121 3.70711 0.881178C3.51957 0.701143 3.26522 0.6 3 0.6C2.73478 0.6 2.48043 0.701143 2.29289 0.881178C2.10536 1.06121 2 1.30539 2 1.56V4.6056C1.41525 4.80407 0.908943 5.17166 0.550778 5.65776C0.192612 6.14386 0.000191686 6.72458 0 7.32V23.64C0 23.8946 0.105357 24.1388 0.292893 24.3188C0.48043 24.4989 0.734784 24.6 1 24.6H10C10.2652 24.6 10.5196 24.4989 10.7071 24.3188C10.8946 24.1388 11 23.8946 11 23.64V18.84C11 18.5854 11.1054 18.3412 11.2929 18.1612C11.4804 17.9811 11.7348 17.88 12 17.88C12.2652 17.88 12.5196 17.9811 12.7071 18.1612C12.8946 18.3412 13 18.5854 13 18.84V23.64C13 23.8946 13.1054 24.1388 13.2929 24.3188C13.4804 24.4989 13.7348 24.6 14 24.6H23C23.2652 24.6 23.5196 24.4989 23.7071 24.3188C23.8946 24.1388 24 23.8946 24 23.64V7.32C23.9998 6.72458 23.8074 6.14386 23.4492 5.65776C23.0911 5.17166 22.5848 4.80407 22 4.6056ZM21 6.36C21.2652 6.36 21.5196 6.46114 21.7071 6.64118C21.8946 6.82121 22 7.06539 22 7.32V10.2H20V7.32C20 7.06539 20.1054 6.82121 20.2929 6.64118C20.4804 6.46114 20.7348 6.36 21 6.36ZM3 6.36C3.26522 6.36 3.51957 6.46114 3.70711 6.64118C3.89464 6.82121 4 7.06539 4 7.32V10.2H2V7.32C2 7.06539 2.10536 6.82121 2.29289 6.64118C2.48043 6.46114 2.73478 6.36 3 6.36ZM2 12.12H4V22.68H2V12.12ZM12 15.96C11.2044 15.96 10.4413 16.2634 9.87868 16.8035C9.31607 17.3436 9 18.0762 9 18.84V22.68H6V14.5968L12 11.3052L18 14.5968V22.68H15V18.84C15 18.0762 14.6839 17.3436 14.1213 16.8035C13.5587 16.2634 12.7956 15.96 12 15.96ZM20 22.68V12.12H22V22.68H20Z" fill="black"/>
</svg>
