<svg width="20" height="20" viewBox="0 0 20 20" fill="none" xmlns="http://www.w3.org/2000/svg">
<rect width="20" height="20" rx="10" fill="#38405F"/>
<path d="M13.7729 9.64787C13.7207 9.70031 13.6586 9.74191 13.5902 9.7703C13.5218 9.7987 13.4485 9.81331 13.3745 9.81331C13.3005 9.81331 13.2272 9.7987 13.1588 9.7703C13.0904 9.74191 13.0283 9.70031 12.9761 9.64787L10.5625 7.23427V14.1249C10.5625 14.2741 10.5032 14.4172 10.3977 14.5226C10.2922 14.6281 10.1492 14.6874 9.99998 14.6874C9.8508 14.6874 9.70772 14.6281 9.60223 14.5226C9.49674 14.4172 9.43748 14.2741 9.43748 14.1249V7.23427L7.02295 9.64787C6.91728 9.75354 6.77395 9.8129 6.62451 9.8129C6.47507 9.8129 6.33175 9.75354 6.22607 9.64787C6.1204 9.54219 6.06104 9.39887 6.06104 9.24943C6.06104 9.09999 6.1204 8.95666 6.22607 8.85099L9.60107 5.47599C9.65333 5.42355 9.71543 5.38194 9.7838 5.35355C9.85217 5.32516 9.92548 5.31055 9.99951 5.31055C10.0735 5.31055 10.1468 5.32516 10.2152 5.35355C10.2836 5.38194 10.3457 5.42355 10.3979 5.47599L13.7729 8.85099C13.8254 8.90325 13.867 8.96535 13.8954 9.03372C13.9238 9.10209 13.9384 9.1754 13.9384 9.24943C13.9384 9.32346 13.9238 9.39677 13.8954 9.46514C13.867 9.53351 13.8254 9.59561 13.7729 9.64787Z" fill="white"/>
</svg>
