<svg width="24" height="26" viewBox="0 0 24 26" fill="none" xmlns="http://www.w3.org/2000/svg">
<path d="M23.9569 21.8302L19.808 1.63098C19.7544 1.36683 19.6503 1.11614 19.5017 0.893312C19.3532 0.670484 19.1631 0.479908 18.9424 0.332534C18.7217 0.185159 18.4747 0.0838906 18.2157 0.0345454C17.9567 -0.0147999 17.6907 -0.0112491 17.433 0.0449936L11.5816 1.33273C11.064 1.44878 10.6121 1.7694 10.3242 2.22485C10.0362 2.68031 9.93554 3.23376 10.044 3.76483L14.1929 23.9641C14.2853 24.4249 14.5299 24.8391 14.8855 25.1371C15.2411 25.435 15.686 25.5985 16.1454 25.6C16.2875 25.5998 16.4291 25.5844 16.5679 25.5539L22.4194 24.2662C22.9376 24.1499 23.3899 23.8286 23.6779 23.3724C23.9658 22.9161 24.0661 22.3618 23.9569 21.8302ZM12.0003 3.34625V3.33473L17.8505 2.05468L18.2667 4.08613L12.4166 5.37514L12.0003 3.34625ZM12.8278 7.37459L18.6805 6.08813L19.098 8.12342L13.2504 9.41115L12.8278 7.37459ZM13.6579 11.4157L19.5105 10.128L21.1731 18.223L15.3204 19.5108L13.6579 11.4157ZM22.0006 22.2642L16.1504 23.5442L15.7342 21.5128L21.5843 20.2238L22.0006 22.2527V22.2642ZM8.00021 1.02296H2.00005C1.46961 1.02296 0.960885 1.23873 0.585802 1.62283C0.210719 2.00692 0 2.52786 0 3.07104V23.5519C0 24.0951 0.210719 24.616 0.585802 25.0001C0.960885 25.3842 1.46961 25.6 2.00005 25.6H8.00021C8.53066 25.6 9.03938 25.3842 9.41447 25.0001C9.78955 24.616 10.0003 24.0951 10.0003 23.5519V3.07104C10.0003 2.52786 9.78955 2.00692 9.41447 1.62283C9.03938 1.23873 8.53066 1.02296 8.00021 1.02296ZM2.00005 3.07104H8.00021V5.11913H2.00005V3.07104ZM2.00005 7.16722H8.00021V19.4557H2.00005V7.16722ZM8.00021 23.5519H2.00005V21.5038H8.00021V23.5519Z" fill="black"/>
</svg>
