<svg width="491" height="105" viewBox="0 0 491 105" fill="none" xmlns="http://www.w3.org/2000/svg">
<g clip-path="url(#clip0_429_1435)">
<path d="M64.7594 47.3114C65.6816 48.9426 65.4608 50.9502 65.0197 54.9615L61.5827 86.2177C60.9593 91.8866 60.648 94.7173 58.9543 96.2087C58.3543 96.7353 57.652 97.1325 56.8914 97.3753C54.7452 98.0618 52.1554 96.8701 46.9758 94.4867L46.8972 94.4506C42.996 92.658 41.0304 91.7548 38.9594 91.6005C38.5231 91.5681 38.0804 91.5584 37.6386 91.576L43.5595 37.7324L43.7346 37.7322C46.4225 37.666 48.9516 38.8305 54.011 41.16L58.3353 43.1485C62.0032 44.8364 63.8372 45.6803 64.7594 47.3114Z" fill="#38405F"/>
<path d="M0.381177 84.3329L3.81864 53.0729C4.44201 47.4039 4.75328 44.5733 6.44702 43.0819C7.04707 42.5553 7.74933 42.1581 8.50987 41.9152C10.6562 41.2287 13.2459 42.4205 18.4255 44.8039L18.5041 44.84C22.4053 46.6326 24.3709 47.5358 26.4419 47.69C26.8814 47.7233 27.3223 47.7315 27.7627 47.7146L21.8419 101.558L21.6663 101.562C18.9784 101.628 16.4493 100.464 11.39 98.1345L7.06564 96.1459C3.39769 94.4581 1.56372 93.6141 0.641517 91.983C-0.280686 90.3518 -0.0599241 88.3442 0.381177 84.3329Z" fill="#38405F"/>
<path d="M27.7765 47.5C27.5626 47.5463 27.4907 47.4729 27.2765 47.5L21.2519 101.997C22.9844 101.788 24.6611 100.438 27.9448 97.7931L31.8138 94.674C34.4341 92.5633 35.7442 91.5079 37.122 91.1827C37.332 91.1289 37.5475 91.0949 37.7618 91.0723L43.6095 37.8935C41.8775 38.099 40.2003 39.4524 36.917 42.0938L33.048 45.2129C30.4278 47.3237 29.1543 47.1748 27.7765 47.5Z" fill="white"/>
<path d="M32.2453 0C28.1442 0.00465246 24.2123 1.63589 21.3124 4.53583C18.4124 7.43578 16.7812 11.3676 16.7765 15.4688C16.7765 28.7051 30.839 38.7018 31.4385 39.1201C31.6749 39.2858 31.9566 39.3746 32.2453 39.3746C32.534 39.3746 32.8157 39.2858 33.0521 39.1201C33.6515 38.7018 47.714 28.7051 47.714 15.4688C47.7094 11.3676 46.0782 7.43578 43.1782 4.53583C40.2783 1.63589 36.3464 0.00465246 32.2453 0ZM32.2453 9.84375C33.3578 9.84375 34.4454 10.1737 35.3704 10.7917C36.2954 11.4098 37.0164 12.2883 37.4421 13.3162C37.8679 14.344 37.9793 15.475 37.7622 16.5661C37.5452 17.6573 37.0094 18.6596 36.2228 19.4462C35.4361 20.2329 34.4338 20.7686 33.3427 20.9857C32.2515 21.2027 31.1205 21.0913 30.0927 20.6656C29.0649 20.2398 28.1864 19.5189 27.5683 18.5938C26.9502 17.6688 26.6203 16.5813 26.6203 15.4688C26.6203 13.9769 27.2129 12.5462 28.2678 11.4913C29.3227 10.4364 30.7534 9.84375 32.2453 9.84375Z" fill="#FF3131"/>
<path d="M62.936 94.936C60.3707 94.936 58.3947 94.2427 57.008 92.856C55.6907 91.4693 55.032 89.4933 55.032 86.928V50.008C55.032 47.4427 55.6907 45.5013 57.008 44.184C58.3947 42.7973 60.3013 42.104 62.728 42.104C65.224 42.104 67.1307 42.7973 68.448 44.184C69.7653 45.5013 70.424 47.4427 70.424 50.008V55.936L69.28 52.504C70.8747 49.1067 73.232 46.5067 76.352 44.704C79.5413 42.832 83.1467 41.896 87.168 41.896C91.2587 41.896 94.6213 42.6933 97.256 44.288C99.8907 45.8133 101.867 48.1707 103.184 51.36C104.501 54.48 105.16 58.4667 105.16 63.32V86.928C105.16 89.4933 104.467 91.4693 103.08 92.856C101.763 94.2427 99.8213 94.936 97.256 94.936C94.76 94.936 92.8187 94.2427 91.432 92.856C90.1147 91.4693 89.456 89.4933 89.456 86.928V64.048C89.456 60.512 88.7973 57.9813 87.48 56.456C86.232 54.8613 84.2907 54.064 81.656 54.064C78.328 54.064 75.6587 55.104 73.648 57.184C71.7067 59.264 70.736 62.0373 70.736 65.504V86.928C70.736 92.2667 68.136 94.936 62.936 94.936ZM134.356 95.144C131.305 95.144 128.15 94.8667 124.892 94.312C121.702 93.7573 118.79 92.8213 116.156 91.504C114.769 90.8107 113.764 89.944 113.14 88.904C112.585 87.7947 112.342 86.6853 112.412 85.576C112.481 84.4667 112.828 83.4613 113.452 82.56C114.145 81.6587 115.012 81.0693 116.052 80.792C117.161 80.4453 118.374 80.5493 119.692 81.104C122.534 82.2827 125.134 83.1147 127.492 83.6C129.849 84.0853 132.172 84.328 134.46 84.328C137.441 84.328 139.59 83.8773 140.908 82.976C142.294 82.0053 142.988 80.7573 142.988 79.232C142.988 77.8453 142.537 76.8053 141.636 76.112C140.734 75.4187 139.417 74.9333 137.684 74.656L126.764 72.68C122.465 71.9173 119.137 70.3573 116.78 68C114.492 65.5733 113.348 62.488 113.348 58.744C113.348 55.2773 114.318 52.296 116.26 49.8C118.201 47.2347 120.87 45.2933 124.268 43.976C127.734 42.5893 131.652 41.896 136.02 41.896C139.14 41.896 142.017 42.1733 144.652 42.728C147.286 43.2827 149.817 44.184 152.244 45.432C153.492 46.056 154.358 46.888 154.844 47.928C155.398 48.968 155.572 50.0427 155.364 51.152C155.225 52.2613 154.809 53.2667 154.116 54.168C153.422 55.0693 152.521 55.6587 151.412 55.936C150.372 56.2133 149.158 56.0747 147.772 55.52C145.553 54.48 143.508 53.752 141.636 53.336C139.764 52.8507 137.961 52.608 136.228 52.608C133.108 52.608 130.854 53.128 129.468 54.168C128.081 55.1387 127.388 56.3867 127.388 57.912C127.388 59.0907 127.769 60.096 128.532 60.928C129.364 61.6907 130.612 62.2107 132.276 62.488L143.196 64.464C147.702 65.2267 151.134 66.752 153.492 69.04C155.849 71.2587 157.028 74.3093 157.028 78.192C157.028 83.4613 154.948 87.6213 150.788 90.672C146.697 93.6533 141.22 95.144 134.356 95.144ZM188.467 95.144C183.683 95.144 179.662 94.3467 176.403 92.752C173.214 91.1573 170.822 88.8347 169.227 85.784C167.702 82.7333 166.939 78.8853 166.939 74.24V54.688H162.571C160.63 54.688 159.105 54.168 157.995 53.128C156.955 52.088 156.435 50.6667 156.435 48.864C156.435 46.9227 156.955 45.4667 157.995 44.496C159.105 43.456 160.63 42.936 162.571 42.936H166.939V35.032C166.939 32.3973 167.633 30.4213 169.019 29.104C170.406 27.7173 172.347 27.024 174.843 27.024C177.409 27.024 179.35 27.7173 180.667 29.104C181.985 30.4213 182.643 32.3973 182.643 35.032V42.936H192.523C194.465 42.936 195.955 43.456 196.995 44.496C198.035 45.4667 198.555 46.9227 198.555 48.864C198.555 50.6667 198.035 52.088 196.995 53.128C195.955 54.168 194.465 54.688 192.523 54.688H182.643V73.616C182.643 76.528 183.302 78.712 184.619 80.168C186.006 81.624 188.19 82.352 191.171 82.352C192.211 82.352 193.182 82.248 194.083 82.04C194.985 81.832 195.817 81.6933 196.579 81.624C197.55 81.5547 198.347 81.8667 198.971 82.56C199.595 83.184 199.907 84.6053 199.907 86.824C199.907 88.488 199.63 89.944 199.075 91.192C198.521 92.44 197.55 93.3413 196.163 93.896C195.262 94.2427 194.014 94.52 192.419 94.728C190.894 95.0053 189.577 95.144 188.467 95.144ZM227.406 95.144C221.929 95.144 217.145 94.0693 213.054 91.92C209.033 89.7707 205.913 86.6853 203.694 82.664C201.476 78.6427 200.366 73.8933 200.366 68.416C200.366 64.3253 200.99 60.6507 202.238 57.392C203.486 54.1333 205.289 51.36 207.646 49.072C210.073 46.7147 212.95 44.9467 216.278 43.768C219.606 42.52 223.316 41.896 227.406 41.896C232.884 41.896 237.633 42.9707 241.654 45.12C245.745 47.2693 248.9 50.32 251.118 54.272C253.406 58.224 254.55 62.9387 254.55 68.416C254.55 72.576 253.892 76.2853 252.574 79.544C251.326 82.8027 249.524 85.6107 247.166 87.968C244.809 90.3253 241.932 92.128 238.534 93.376C235.206 94.5547 231.497 95.144 227.406 95.144ZM227.406 83.392C229.694 83.392 231.67 82.8373 233.334 81.728C234.998 80.6187 236.316 78.9893 237.286 76.84C238.257 74.6213 238.742 71.8133 238.742 68.416C238.742 63.3547 237.702 59.6453 235.622 57.288C233.542 54.8613 230.804 53.648 227.406 53.648C225.188 53.648 223.212 54.168 221.478 55.208C219.814 56.248 218.497 57.8773 217.526 60.096C216.625 62.2453 216.174 65.0187 216.174 68.416C216.174 73.4773 217.214 77.256 219.294 79.752C221.374 82.1787 224.078 83.392 227.406 83.392ZM280.848 95.144C276.55 95.144 272.979 94.3467 270.136 92.752C267.294 91.1573 265.179 88.7653 263.792 85.576C262.475 82.3173 261.816 78.296 261.816 73.512V50.008C261.816 47.3733 262.475 45.3973 263.792 44.08C265.179 42.7627 267.12 42.104 269.616 42.104C272.112 42.104 274.054 42.7627 275.44 44.08C276.827 45.3973 277.52 47.3733 277.52 50.008V73.928C277.52 76.9787 278.144 79.2667 279.392 80.792C280.64 82.248 282.616 82.976 285.32 82.976C288.302 82.976 290.728 81.936 292.6 79.856C294.542 77.7067 295.512 74.8987 295.512 71.432V50.008C295.512 47.3733 296.171 45.3973 297.488 44.08C298.875 42.7627 300.816 42.104 303.312 42.104C305.878 42.104 307.819 42.7627 309.136 44.08C310.523 45.3973 311.216 47.3733 311.216 50.008V86.928C311.216 92.2667 308.686 94.936 303.624 94.936C301.128 94.936 299.222 94.2427 297.904 92.856C296.587 91.4693 295.928 89.4933 295.928 86.928V79.96L297.488 84.016C295.963 87.552 293.779 90.2907 290.936 92.232C288.094 94.1733 284.731 95.144 280.848 95.144ZM329.4 94.936C326.766 94.936 324.755 94.2427 323.368 92.856C321.982 91.4693 321.288 89.4933 321.288 86.928V50.008C321.288 47.4427 321.947 45.5013 323.264 44.184C324.651 42.7973 326.558 42.104 328.984 42.104C331.48 42.104 333.387 42.7973 334.704 44.184C336.022 45.5013 336.68 47.4427 336.68 50.008V55.416H335.64C336.472 51.256 338.31 48.032 341.152 45.744C343.995 43.456 347.67 42.1733 352.176 41.896C353.91 41.7573 355.227 42.208 356.128 43.248C357.099 44.2187 357.619 45.848 357.688 48.136C357.827 50.2853 357.376 51.984 356.336 53.232C355.366 54.48 353.702 55.2427 351.344 55.52L348.952 55.728C345 56.0747 342.054 57.2187 340.112 59.16C338.24 61.1013 337.304 63.9093 337.304 67.584V86.928C337.304 89.4933 336.611 91.4693 335.224 92.856C333.907 94.2427 331.966 94.936 329.4 94.936ZM369.972 94.832C367.406 94.832 365.43 94.104 364.044 92.648C362.726 91.1227 362.068 89.008 362.068 86.304V50.736C362.068 47.9627 362.726 45.848 364.044 44.392C365.43 42.8667 367.406 42.104 369.972 42.104C372.468 42.104 374.374 42.8667 375.692 44.392C377.078 45.848 377.772 47.9627 377.772 50.736V86.304C377.772 89.008 377.113 91.1227 375.796 92.648C374.478 94.104 372.537 94.832 369.972 94.832ZM369.972 33.576C367.06 33.576 364.806 32.9173 363.212 31.6C361.686 30.2133 360.924 28.272 360.924 25.776C360.924 23.2107 361.686 21.2693 363.212 19.952C364.806 18.5653 367.06 17.872 369.972 17.872C372.884 17.872 375.102 18.5653 376.628 19.952C378.153 21.2693 378.916 23.2107 378.916 25.776C378.916 28.272 378.153 30.2133 376.628 31.6C375.102 32.9173 372.884 33.576 369.972 33.576ZM407.368 95.144C404.317 95.144 401.162 94.8667 397.904 94.312C394.714 93.7573 391.802 92.8213 389.168 91.504C387.781 90.8107 386.776 89.944 386.152 88.904C385.597 87.7947 385.354 86.6853 385.424 85.576C385.493 84.4667 385.84 83.4613 386.464 82.56C387.157 81.6587 388.024 81.0693 389.064 80.792C390.173 80.4453 391.386 80.5493 392.704 81.104C395.546 82.2827 398.146 83.1147 400.504 83.6C402.861 84.0853 405.184 84.328 407.472 84.328C410.453 84.328 412.602 83.8773 413.92 82.976C415.306 82.0053 416 80.7573 416 79.232C416 77.8453 415.549 76.8053 414.648 76.112C413.746 75.4187 412.429 74.9333 410.696 74.656L399.776 72.68C395.477 71.9173 392.149 70.3573 389.792 68C387.504 65.5733 386.36 62.488 386.36 58.744C386.36 55.2773 387.33 52.296 389.272 49.8C391.213 47.2347 393.882 45.2933 397.28 43.976C400.746 42.5893 404.664 41.896 409.032 41.896C412.152 41.896 415.029 42.1733 417.664 42.728C420.298 43.2827 422.829 44.184 425.256 45.432C426.504 46.056 427.37 46.888 427.856 47.928C428.41 48.968 428.584 50.0427 428.376 51.152C428.237 52.2613 427.821 53.2667 427.128 54.168C426.434 55.0693 425.533 55.6587 424.424 55.936C423.384 56.2133 422.17 56.0747 420.784 55.52C418.565 54.48 416.52 53.752 414.648 53.336C412.776 52.8507 410.973 52.608 409.24 52.608C406.12 52.608 403.866 53.128 402.48 54.168C401.093 55.1387 400.4 56.3867 400.4 57.912C400.4 59.0907 400.781 60.096 401.544 60.928C402.376 61.6907 403.624 62.2107 405.288 62.488L416.208 64.464C420.714 65.2267 424.146 66.752 426.504 69.04C428.861 71.2587 430.04 74.3093 430.04 78.192C430.04 83.4613 427.96 87.6213 423.8 90.672C419.709 93.6533 414.232 95.144 407.368 95.144ZM461.479 95.144C456.695 95.144 452.674 94.3467 449.415 92.752C446.226 91.1573 443.834 88.8347 442.239 85.784C440.714 82.7333 439.951 78.8853 439.951 74.24V54.688H435.583C433.642 54.688 432.117 54.168 431.007 53.128C429.967 52.088 429.447 50.6667 429.447 48.864C429.447 46.9227 429.967 45.4667 431.007 44.496C432.117 43.456 433.642 42.936 435.583 42.936H439.951V35.032C439.951 32.3973 440.645 30.4213 442.031 29.104C443.418 27.7173 445.359 27.024 447.855 27.024C450.421 27.024 452.362 27.7173 453.679 29.104C454.997 30.4213 455.655 32.3973 455.655 35.032V42.936H465.535C467.477 42.936 468.967 43.456 470.007 44.496C471.047 45.4667 471.567 46.9227 471.567 48.864C471.567 50.6667 471.047 52.088 470.007 53.128C468.967 54.168 467.477 54.688 465.535 54.688H455.655V73.616C455.655 76.528 456.314 78.712 457.631 80.168C459.018 81.624 461.202 82.352 464.183 82.352C465.223 82.352 466.194 82.248 467.095 82.04C467.997 81.832 468.829 81.6933 469.591 81.624C470.562 81.5547 471.359 81.8667 471.983 82.56C472.607 83.184 472.919 84.6053 472.919 86.824C472.919 88.488 472.642 89.944 472.087 91.192C471.533 92.44 470.562 93.3413 469.175 93.896C468.274 94.2427 467.026 94.52 465.431 94.728C463.906 95.0053 462.589 95.144 461.479 95.144Z" fill="white"/>
</g>
<defs>
<clipPath id="clip0_429_1435">
<rect width="491" height="105" fill="white"/>
</clipPath>
</defs>
</svg>
