<svg width="433" height="105" viewBox="0 0 433 105" fill="none" xmlns="http://www.w3.org/2000/svg">
<g clip-path="url(#clip0_325_2007)">
<path d="M64.7594 47.3114C65.6816 48.9426 65.4608 50.9502 65.0197 54.9615L61.5827 86.2177C60.9593 91.8866 60.648 94.7173 58.9543 96.2087C58.3543 96.7353 57.652 97.1325 56.8914 97.3753C54.7452 98.0618 52.1554 96.8701 46.9758 94.4867L46.8972 94.4506C42.996 92.658 41.0304 91.7548 38.9594 91.6005C38.5231 91.5681 38.0804 91.5584 37.6386 91.576L43.5595 37.7324L43.7346 37.7322C46.4225 37.666 48.9516 38.8305 54.011 41.16L58.3353 43.1485C62.0032 44.8364 63.8372 45.6803 64.7594 47.3114Z" fill="#D9D9D9"/>
<path d="M0.381177 84.3329L3.81864 53.0729C4.44201 47.4039 4.75328 44.5733 6.44702 43.0819C7.04707 42.5553 7.74933 42.1581 8.50987 41.9152C10.6562 41.2287 13.2459 42.4205 18.4255 44.8039L18.5041 44.84C22.4053 46.6326 24.3709 47.5358 26.4419 47.69C26.8814 47.7233 27.3223 47.7315 27.7627 47.7146L21.8419 101.558L21.6663 101.562C18.9784 101.628 16.4493 100.464 11.39 98.1345L7.06564 96.1459C3.39769 94.4581 1.56372 93.6141 0.641517 91.983C-0.280686 90.3518 -0.0599241 88.3442 0.381177 84.3329Z" fill="#D9D9D9"/>
<path d="M27.7765 47.5C27.5626 47.5463 27.4907 47.4729 27.2765 47.5L21.2519 101.997C22.9844 101.788 24.6611 100.438 27.9448 97.7931L31.8138 94.674C34.4341 92.5633 35.7442 91.5079 37.122 91.1827C37.332 91.1289 37.5475 91.0949 37.7618 91.0723L43.6095 37.8935C41.8775 38.099 40.2003 39.4524 36.917 42.0938L33.048 45.2129C30.4278 47.3237 29.1543 47.1748 27.7765 47.5Z" fill="#38405F"/>
<path d="M32.2453 0C28.1442 0.00465246 24.2123 1.63589 21.3124 4.53583C18.4124 7.43578 16.7812 11.3676 16.7765 15.4688C16.7765 28.7051 30.839 38.7018 31.4385 39.1201C31.6749 39.2858 31.9566 39.3746 32.2453 39.3746C32.534 39.3746 32.8157 39.2858 33.0521 39.1201C33.6515 38.7018 47.714 28.7051 47.714 15.4688C47.7094 11.3676 46.0782 7.43578 43.1782 4.53583C40.2783 1.63589 36.3464 0.00465246 32.2453 0ZM32.2453 9.84375C33.3578 9.84375 34.4453 10.1737 35.3704 10.7917C36.2954 11.4098 37.0164 12.2883 37.4421 13.3162C37.8679 14.344 37.9793 15.475 37.7622 16.5661C37.5452 17.6573 37.0094 18.6596 36.2228 19.4462C35.4361 20.2329 34.4338 20.7686 33.3427 20.9857C32.2515 21.2027 31.1205 21.0913 30.0927 20.6656C29.0649 20.2398 28.1864 19.5189 27.5683 18.5938C26.9502 17.6688 26.6203 16.5813 26.6203 15.4688C26.6203 13.9769 27.2129 12.5462 28.2678 11.4913C29.3227 10.4364 30.7534 9.84375 32.2453 9.84375Z" fill="#FF3131"/>
<path d="M60.3461 94.7873C57.727 94.7873 55.7096 94.0785 54.2939 92.6608C52.949 91.2432 52.2765 89.223 52.2765 86.6003V48.8546C52.2765 46.2319 52.949 44.2472 54.2939 42.9004C55.7096 41.4827 57.6562 40.7739 60.1337 40.7739C62.682 40.7739 64.6286 41.4827 65.9735 42.9004C67.3184 44.2472 67.9909 46.2319 67.9909 48.8546V49.5C69.619 46.0267 70.8577 45.275 74.0431 43.432C77.2992 41.5182 80.98 40.5612 85.0856 40.5612C89.262 40.5612 92.6951 41.3764 95.3849 43.0067C98.0748 44.5662 100.092 46.9762 101.437 50.2369C102.782 53.4266 103.454 57.5025 103.454 62.4643V86.6003C103.454 89.223 102.747 91.2432 101.331 92.6608C99.986 94.0785 98.004 94.7873 95.3849 94.7873C92.8366 94.7873 90.8546 94.0785 89.4389 92.6608C88.094 91.2432 87.4215 89.223 87.4215 86.6003V63.2086C87.4215 59.5935 86.7491 57.0063 85.4041 55.4468C84.13 53.8165 82.148 53.0013 79.4582 53.0013C76.0605 53.0013 73.3352 54.0646 71.2824 56.1911C69.3004 58.3176 68.3094 61.153 68.3094 64.6972V86.6003C68.3094 92.0583 65.655 94.7873 60.3461 94.7873Z" fill="#38405F"/>
<path d="M135.385 95C132.271 95 129.05 94.7165 125.723 94.1494C122.467 93.5823 119.494 92.6254 116.804 91.2786C115.388 90.5698 114.362 89.6837 113.725 88.6205C113.158 87.4863 112.911 86.3522 112.981 85.218C113.052 84.0839 113.406 83.0561 114.043 82.1346C114.751 81.2131 115.636 80.6106 116.698 80.327C117.83 79.9726 119.069 80.079 120.414 80.646C123.316 81.8511 125.971 82.7017 128.377 83.1978C130.784 83.694 133.155 83.9421 135.491 83.9421C138.535 83.9421 140.729 83.4814 142.074 82.5599C143.49 81.5675 144.198 80.2916 144.198 78.7322C144.198 77.3145 143.738 76.2512 142.818 75.5424C141.897 74.8336 140.552 74.3374 138.783 74.0538L127.634 72.0337C123.245 71.2539 119.848 69.659 117.441 67.249C115.105 64.7681 113.937 61.6137 113.937 57.786C113.937 54.2418 114.928 51.1938 116.91 48.642C118.892 46.0193 121.617 44.0345 125.086 42.6878C128.625 41.2701 132.624 40.5612 137.084 40.5612C140.269 40.5612 143.207 40.8448 145.897 41.4118C148.587 41.9789 151.17 42.9004 153.648 44.1763C154.922 44.8143 155.807 45.6649 156.302 46.7281C156.868 47.7914 157.045 48.8901 156.833 50.0242C156.692 51.1584 156.267 52.1862 155.559 53.1077C154.851 54.0292 153.931 54.6317 152.798 54.9152C151.737 55.1987 150.498 55.057 149.082 54.4899C146.817 53.4266 144.729 52.6824 142.818 52.2571C140.906 51.7609 139.066 51.5128 137.296 51.5128C134.111 51.5128 131.81 52.0444 130.395 53.1077C128.979 54.1 128.271 55.376 128.271 56.9354C128.271 58.1404 128.66 59.1682 129.439 60.0188C130.289 60.7986 131.563 61.3302 133.262 61.6137L144.41 63.6339C149.011 64.4136 152.515 65.9731 154.922 68.3122C157.329 70.5805 158.532 73.6994 158.532 77.6689C158.532 83.0561 156.408 87.3091 152.161 90.428C147.985 93.476 142.393 95 135.385 95Z" fill="#38405F"/>
<path d="M192.754 95C187.87 95 183.764 94.1848 180.437 92.5545C177.181 90.9242 174.739 88.5496 173.111 85.4307C171.553 82.3118 170.775 78.3777 170.775 73.6285V53.6393H166.315C164.333 53.6393 162.776 53.1077 161.643 52.0444C160.582 50.9812 160.051 49.528 160.051 47.6851C160.051 45.7003 160.582 44.2118 161.643 43.2194C162.776 42.1561 164.333 41.6245 166.315 41.6245H170.775V33.5437C170.775 30.8502 171.483 28.83 172.898 27.4832C174.314 26.0655 176.296 25.3567 178.844 25.3567C181.463 25.3567 183.445 26.0655 184.79 27.4832C186.135 28.83 186.808 30.8502 186.808 33.5437V41.6245H196.895C198.877 41.6245 200.399 42.1561 201.46 43.2194C202.522 44.2118 203.053 45.7003 203.053 47.6851C203.053 49.528 202.522 50.9812 201.46 52.0444C200.399 53.1077 198.877 53.6393 196.895 53.6393H186.808V72.9906C186.808 75.9677 187.48 78.2005 188.825 79.6891C190.241 81.1777 192.471 81.9219 195.514 81.9219C196.576 81.9219 197.567 81.8156 198.487 81.603C199.408 81.3903 200.257 81.2485 201.036 81.1777C202.027 81.1068 202.841 81.4258 203.478 82.1346C204.115 82.7725 204.433 84.2257 204.433 86.4939C204.433 88.1952 204.15 89.6837 203.584 90.9596C203.018 92.2355 202.027 93.157 200.611 93.7241C199.691 94.0785 198.417 94.362 196.788 94.5747C195.231 94.8582 193.886 95 192.754 95Z" fill="#38405F"/>
<path d="M234.632 95C229.04 95 224.156 93.9013 219.979 91.7039C215.874 89.5065 212.688 86.3522 210.423 82.2409C208.158 78.1297 207.026 73.2741 207.026 67.6743C207.026 63.4921 207.663 59.7353 208.937 56.4038C210.211 53.0722 212.051 50.2369 214.458 47.8977C216.936 45.4877 219.873 43.6801 223.271 42.4751C226.669 41.1992 230.456 40.5612 234.632 40.5612C240.224 40.5612 245.073 41.6599 249.178 43.8573C253.355 46.0547 256.575 49.1736 258.841 53.214C261.176 57.2544 262.344 62.0745 262.344 67.6743C262.344 71.9273 261.672 75.7196 260.327 79.0511C259.053 82.3827 257.212 85.2535 254.806 87.6635C252.399 90.0736 249.461 91.9166 245.993 93.1925C242.595 94.3975 238.808 95 234.632 95ZM234.632 82.9852C236.968 82.9852 238.985 82.4181 240.684 81.284C242.383 80.1498 243.728 78.4841 244.719 76.2867C245.71 74.0184 246.205 71.1476 246.205 67.6743C246.205 62.4998 245.144 58.7075 243.02 56.2974C240.896 53.8165 238.1 52.576 234.632 52.576C232.367 52.576 230.349 53.1077 228.58 54.1709C226.881 55.2342 225.536 56.9 224.545 59.1682C223.625 61.3656 223.165 64.201 223.165 67.6743C223.165 72.8488 224.226 76.712 226.35 79.2638C228.474 81.7447 231.234 82.9852 234.632 82.9852Z" fill="#38405F"/>
<path d="M280.381 94.7873C277.691 94.7873 275.638 94.0785 274.222 92.6608C272.807 91.2432 272.099 89.223 272.099 86.6003V48.8546C272.099 46.2319 272.771 44.2472 274.116 42.9004C275.532 41.4827 277.478 40.7739 279.956 40.7739C282.504 40.7739 284.451 41.4827 285.796 42.9004C287.141 44.2472 287.813 46.2319 287.813 48.8546L287.777 53C288.626 48.747 289.477 46.8345 292.379 44.4953C295.281 42.1561 299.033 40.8448 303.634 40.5612C305.403 40.4195 306.748 40.8802 307.668 41.9435C308.659 42.9358 309.19 44.6016 309.261 46.9408C309.403 49.1382 308.943 50.8748 307.881 52.1507C306.89 53.4267 305.191 54.2064 302.784 54.4899L300.342 54.7026C296.307 55.057 293.299 56.2266 291.317 58.2113C289.406 60.1961 288.45 63.0669 288.45 66.8237V86.6003C288.45 89.223 287.742 91.2432 286.327 92.6608C284.982 94.0785 283 94.7873 280.381 94.7873Z" fill="#38405F"/>
<path d="M323.925 94.681C321.306 94.681 319.289 93.9367 317.873 92.4482C316.528 90.8887 315.856 88.7268 315.856 85.9623V49.5989C315.856 46.7636 316.528 44.6016 317.873 43.1131C319.289 41.5536 321.306 40.7739 323.925 40.7739C326.474 40.7739 328.42 41.5536 329.765 43.1131C331.181 44.6016 331.889 46.7636 331.889 49.5989V85.9623C331.889 88.7268 331.216 90.8887 329.871 92.4482C328.526 93.9367 326.544 94.681 323.925 94.681ZM323.925 32.0552C320.952 32.0552 318.652 31.3818 317.024 30.035C315.466 28.6173 314.688 26.6326 314.688 24.0808C314.688 21.4581 315.466 19.4733 317.024 18.1265C318.652 16.7088 320.952 16 323.925 16C326.898 16 329.163 16.7088 330.721 18.1265C332.278 19.4733 333.057 21.4581 333.057 24.0808C333.057 26.6326 332.278 28.6173 330.721 30.035C329.163 31.3818 326.898 32.0552 323.925 32.0552Z" fill="#38405F"/>
<path d="M364.228 95C361.114 95 357.893 94.7165 354.566 94.1494C351.31 93.5823 348.337 92.6254 345.647 91.2786C344.231 90.5698 343.205 89.6837 342.568 88.6205C342.002 87.4863 341.754 86.3522 341.825 85.218C341.895 84.0839 342.249 83.0561 342.886 82.1346C343.594 81.2131 344.479 80.6106 345.541 80.327C346.673 79.9726 347.912 80.079 349.257 80.646C352.159 81.8511 354.814 82.7017 357.221 83.1978C359.627 83.694 361.999 83.9421 364.334 83.9421C367.378 83.9421 369.573 83.4814 370.918 82.5599C372.333 81.5675 373.041 80.2916 373.041 78.7322C373.041 77.3145 372.581 76.2512 371.661 75.5424C370.741 74.8336 369.396 74.3374 367.626 74.0538L356.477 72.0337C352.089 71.2539 348.691 69.659 346.284 67.249C343.948 64.7681 342.78 61.6137 342.78 57.786C342.78 54.2418 343.771 51.1938 345.753 48.642C347.735 46.0193 350.461 44.0345 353.929 42.6878C357.468 41.2701 361.468 40.5612 365.927 40.5612C369.113 40.5612 372.05 40.8448 374.74 41.4118C377.43 41.9789 380.013 42.9004 382.491 44.1763C383.765 44.8143 384.65 45.6649 385.145 46.7281C385.712 47.7914 385.889 48.8901 385.676 50.0242C385.535 51.1584 385.11 52.1862 384.402 53.1077C383.694 54.0292 382.774 54.6317 381.642 54.9152C380.58 55.1987 379.341 55.057 377.925 54.4899C375.66 53.4266 373.572 52.6824 371.661 52.2571C369.75 51.7609 367.909 51.5128 366.14 51.5128C362.954 51.5128 360.654 52.0444 359.238 53.1077C357.822 54.1 357.114 55.376 357.114 56.9354C357.114 58.1404 357.504 59.1682 358.282 60.0188C359.132 60.7986 360.406 61.3302 362.105 61.6137L373.253 63.6339C377.855 64.4136 381.358 65.9731 383.765 68.3122C386.172 70.5805 387.375 73.6994 387.375 77.6689C387.375 83.0561 385.252 87.3091 381.004 90.428C376.828 93.476 371.236 95 364.228 95Z" fill="#38405F"/>
<path d="M421.597 95C416.713 95 412.607 94.1848 409.28 92.5545C406.024 90.9242 403.582 88.5496 401.954 85.4307C400.397 82.3118 399.618 78.3777 399.618 73.6285V53.6393H395.159C393.177 53.6393 391.619 53.1077 390.487 52.0444C389.425 50.9812 388.894 49.528 388.894 47.6851C388.894 45.7003 389.425 44.2118 390.487 43.2194C391.619 42.1561 393.177 41.6245 395.159 41.6245H399.618V33.5437C399.618 30.8502 400.326 28.83 401.742 27.4832C403.157 26.0655 405.139 25.3567 407.688 25.3567C410.307 25.3567 412.289 26.0655 413.634 27.4832C414.978 28.83 415.651 30.8502 415.651 33.5437V41.6245H425.738C427.72 41.6245 429.242 42.1561 430.304 43.2194C431.365 44.2118 431.896 45.7003 431.896 47.6851C431.896 49.528 431.365 50.9812 430.304 52.0444C429.242 53.1077 427.72 53.6393 425.738 53.6393H415.651V72.9906C415.651 75.9677 416.323 78.2005 417.668 79.6891C419.084 81.1777 421.314 81.9219 424.358 81.9219C425.419 81.9219 426.41 81.8156 427.331 81.603C428.251 81.3903 429.1 81.2485 429.879 81.1777C430.87 81.1068 431.684 81.4258 432.321 82.1346C432.958 82.7725 433.277 84.2257 433.277 86.4939C433.277 88.1952 432.993 89.6837 432.427 90.9596C431.861 92.2355 430.87 93.157 429.454 93.7241C428.534 94.0785 427.26 94.362 425.632 94.5747C424.074 94.8582 422.729 95 421.597 95Z" fill="#38405F"/>
</g>
<defs>
<clipPath id="clip0_325_2007">
<rect width="433" height="105" fill="white"/>
</clipPath>
</defs>
</svg>
