<svg width="147" height="35" viewBox="0 0 147 35" fill="none" xmlns="http://www.w3.org/2000/svg">
<path d="M21.9713 16.2348C22.2841 16.7945 22.2092 17.4834 22.0596 18.8598L20.8935 29.5853C20.682 31.5306 20.5764 32.5019 20.0017 33.0137C19.7982 33.1944 19.5599 33.3307 19.3019 33.414C18.5737 33.6496 17.695 33.2406 15.9377 32.4228L15.9111 32.4104C14.5875 31.7953 13.9206 31.4853 13.218 31.4324C13.0699 31.4213 12.9197 31.4179 12.7699 31.424L14.7786 12.9478L14.8381 12.9477C15.75 12.925 16.6081 13.3245 18.3246 14.1239L19.7917 14.8063C21.0362 15.3854 21.6584 15.675 21.9713 16.2348Z" fill="white" fill-opacity="0.3"/>
<path d="M0.129324 28.9385L1.29557 18.2118C1.50707 16.2665 1.61267 15.2952 2.18731 14.7834C2.3909 14.6027 2.62915 14.4664 2.88719 14.3831C3.61537 14.1475 4.49402 14.5564 6.25132 15.3743L6.27799 15.3867C7.60158 16.0018 8.26846 16.3117 8.97109 16.3647C9.12018 16.3761 9.26979 16.3789 9.41919 16.3731L7.4104 34.8493L7.35082 34.8507C6.43892 34.8734 5.58084 34.4739 3.86434 33.6745L2.3972 32.9921C1.15275 32.4129 0.530531 32.1234 0.217651 31.5636C-0.0952297 31.0039 -0.0203307 30.315 0.129324 28.9385Z" fill="white" fill-opacity="0.3"/>
<path d="M9.42389 16.2994C9.35132 16.3153 9.32693 16.2902 9.25425 16.2994L7.21024 35C7.79803 34.9282 8.36689 34.4651 9.48097 33.5574L10.7936 32.4871C11.6826 31.7628 12.1271 31.4006 12.5946 31.289C12.6658 31.2706 12.7389 31.2589 12.8116 31.2512L14.7956 13.003C14.208 13.0736 13.639 13.5379 12.525 14.4444L11.2124 15.5147C10.3234 16.239 9.89135 16.1879 9.42389 16.2994Z" fill="white"/>
<path d="M10.94 0C9.54861 0.00159648 8.21464 0.561348 7.23076 1.55645C6.24688 2.55156 5.69344 3.90076 5.69187 5.30805C5.69187 9.85005 10.4629 13.2804 10.6663 13.4239C10.7465 13.4808 10.8421 13.5113 10.94 13.5113C11.038 13.5113 11.1335 13.4808 11.2138 13.4239C11.4171 13.2804 16.1882 9.85005 16.1882 5.30805C16.1866 3.90076 15.6332 2.55156 14.6493 1.55645C13.6654 0.561348 12.3314 0.00159648 10.94 0ZM10.94 3.37785C11.3175 3.37785 11.6865 3.49105 12.0003 3.70315C12.3141 3.91524 12.5587 4.21669 12.7032 4.56939C12.8476 4.92209 12.8854 5.31019 12.8118 5.68461C12.7381 6.05903 12.5564 6.40296 12.2895 6.67291C12.0226 6.94285 11.6825 7.12668 11.3123 7.20116C10.9421 7.27564 10.5584 7.23741 10.2097 7.09132C9.86099 6.94523 9.56293 6.69783 9.35323 6.38041C9.14353 6.06299 9.03161 5.68981 9.03161 5.30805C9.03161 4.79613 9.23267 4.30517 9.59057 3.94319C9.94847 3.58121 10.4339 3.37785 10.94 3.37785Z" fill="#FF3131"/>
<path d="M20.4739 32.5259C19.5853 32.5259 18.9009 32.2827 18.4206 31.7962C17.9643 31.3098 17.7361 30.6165 17.7361 29.7166V16.7643C17.7361 15.8643 17.9643 15.1833 18.4206 14.7211C18.9009 14.2347 19.5613 13.9914 20.4019 13.9914C21.2664 13.9914 21.9269 14.2347 22.3832 14.7211C22.8395 15.1833 23.0676 15.8643 23.0676 16.7643V18.844L22.6714 17.6399C23.2237 16.4481 24.0403 15.536 25.121 14.9035C26.2257 14.2468 27.4745 13.9184 28.8674 13.9184C30.2844 13.9184 31.4491 14.1982 32.3617 14.7576C33.2743 15.2927 33.9588 16.1197 34.4151 17.2386C34.8714 18.3332 35.0995 19.7318 35.0995 21.4344V29.7166C35.0995 30.6165 34.8594 31.3098 34.3791 31.7962C33.9228 32.2827 33.2503 32.5259 32.3617 32.5259C31.4972 32.5259 30.8247 32.2827 30.3444 31.7962C29.8881 31.3098 29.66 30.6165 29.66 29.7166V21.6898C29.66 20.4493 29.4318 19.5615 28.9755 19.0264C28.5432 18.4669 27.8708 18.1872 26.9582 18.1872C25.8054 18.1872 24.8808 18.5521 24.1844 19.2818C23.5119 20.0115 23.1757 20.9844 23.1757 22.2006V29.7166C23.1757 31.5895 22.2751 32.5259 20.4739 32.5259Z" fill="white"/>
<path d="M45.9328 32.5989C44.8761 32.5989 43.7834 32.5016 42.6547 32.307C41.5499 32.1124 40.5413 31.7841 39.6287 31.3219C39.1483 31.0787 38.8001 30.7746 38.584 30.4098C38.3918 30.0206 38.3078 29.6314 38.3318 29.2423C38.3558 28.8531 38.4759 28.5004 38.692 28.1842C38.9322 27.868 39.2324 27.6612 39.5926 27.5639C39.9769 27.4423 40.3972 27.4788 40.8535 27.6734C41.8381 28.0869 42.7387 28.3788 43.5552 28.549C44.3718 28.7193 45.1763 28.8044 45.9688 28.8044C47.0015 28.8044 47.746 28.6463 48.2023 28.3301C48.6826 27.9896 48.9228 27.5518 48.9228 27.0167C48.9228 26.5302 48.7667 26.1653 48.4545 25.9221C48.1423 25.6789 47.686 25.5086 47.0856 25.4113L43.3031 24.7181C41.8141 24.4505 40.6613 23.9033 39.8448 23.0763C39.0523 22.2249 38.656 21.1425 38.656 19.8291C38.656 18.6129 38.9922 17.567 39.6647 16.6913C40.3371 15.7914 41.2617 15.1103 42.4385 14.6482C43.6393 14.1617 44.9962 13.9184 46.5092 13.9184C47.5899 13.9184 48.5865 14.0157 49.4991 14.2103C50.4117 14.4049 51.2883 14.7211 52.1289 15.1589C52.5612 15.3779 52.8614 15.6697 53.0295 16.0346C53.2216 16.3994 53.2816 16.7765 53.2096 17.1656C53.1616 17.5548 53.0175 17.9075 52.7773 18.2237C52.5371 18.5399 52.2249 18.7467 51.8407 18.844C51.4804 18.9413 51.0602 18.8926 50.5799 18.698C49.8114 18.3332 49.1029 18.0778 48.4545 17.9318C47.806 17.7616 47.1816 17.6764 46.5812 17.6764C45.5005 17.6764 44.72 17.8589 44.2397 18.2237C43.7594 18.5642 43.5192 19.0021 43.5192 19.5372C43.5192 19.9507 43.6513 20.3034 43.9155 20.5953C44.2037 20.8628 44.636 21.0452 45.2123 21.1425L48.9948 21.8358C50.5558 22.1033 51.7446 22.6384 52.5612 23.4411C53.3777 24.2195 53.786 25.2897 53.786 26.6518C53.786 28.5004 53.0655 29.9598 51.6245 31.03C50.2076 32.076 48.3104 32.5989 45.9328 32.5989Z" fill="white"/>
<path d="M65.3966 32.5989C63.7395 32.5989 62.3465 32.3192 61.2178 31.7598C60.1131 31.2003 59.2845 30.3855 58.7322 29.3152C58.2038 28.245 57.9397 26.895 57.9397 25.2654V18.4061H56.4267C55.7542 18.4061 55.2259 18.2237 54.8416 17.8589C54.4814 17.494 54.3013 16.9954 54.3013 16.363C54.3013 15.6819 54.4814 15.1711 54.8416 14.8306C55.2259 14.4657 55.7542 14.2833 56.4267 14.2833H57.9397V11.5104C57.9397 10.5861 58.1798 9.8929 58.6601 9.43076C59.1404 8.94429 59.8129 8.70105 60.6775 8.70105C61.566 8.70105 62.2385 8.94429 62.6948 9.43076C63.1511 9.8929 63.3792 10.5861 63.3792 11.5104V14.2833H66.8015C67.4739 14.2833 67.9903 14.4657 68.3505 14.8306C68.7107 15.1711 68.8909 15.6819 68.8909 16.363C68.8909 16.9954 68.7107 17.494 68.3505 17.8589C67.9903 18.2237 67.4739 18.4061 66.8015 18.4061H63.3792V25.0465C63.3792 26.068 63.6074 26.8342 64.0637 27.345C64.544 27.8558 65.3005 28.1112 66.3332 28.1112C66.6934 28.1112 67.0296 28.0747 67.3418 28.0018C67.654 27.9288 67.9422 27.8801 68.2064 27.8558C68.5426 27.8315 68.8188 27.941 69.035 28.1842C69.2511 28.4031 69.3592 28.9017 69.3592 29.6801C69.3592 30.2639 69.2631 30.7747 69.071 31.2125C68.8789 31.6503 68.5426 31.9665 68.0623 32.1611C67.7501 32.2827 67.3178 32.38 66.7655 32.453C66.2371 32.5503 65.7808 32.5989 65.3966 32.5989Z" fill="white"/>
<path d="M79.6048 32.5989C77.7076 32.5989 76.0505 32.2219 74.6335 31.4679C73.2406 30.7138 72.1599 29.6314 71.3914 28.2207C70.6229 26.8099 70.2386 25.1438 70.2386 23.2222C70.2386 21.7871 70.4548 20.498 70.8871 19.3548C71.3194 18.2115 71.9438 17.2386 72.7603 16.4359C73.6008 15.6089 74.5975 14.9887 75.7503 14.5752C76.903 14.1374 78.1879 13.9184 79.6048 13.9184C81.502 13.9184 83.1471 14.2955 84.54 15.0495C85.957 15.8035 87.0497 16.8738 87.8182 18.2602C88.6107 19.6466 89.007 21.3006 89.007 23.2222C89.007 24.6816 88.7788 25.9829 88.3225 27.1261C87.8902 28.2693 87.2658 29.2544 86.4493 30.0814C85.6328 30.9084 84.6361 31.5408 83.4593 31.9787C82.3066 32.3922 81.0217 32.5989 79.6048 32.5989ZM79.6048 28.4761C80.3973 28.4761 81.0818 28.2815 81.6581 27.8923C82.2345 27.5031 82.6908 26.9315 83.027 26.1775C83.3633 25.3992 83.5314 24.414 83.5314 23.2222C83.5314 21.4466 83.1711 20.1453 82.4507 19.3183C81.7302 18.4669 80.7816 18.0413 79.6048 18.0413C78.8363 18.0413 78.1518 18.2237 77.5514 18.5886C76.9751 18.9534 76.5188 19.525 76.1825 20.3034C75.8703 21.0574 75.7142 22.0303 75.7142 23.2222C75.7142 24.9978 76.0745 26.3234 76.7949 27.1991C77.5154 28.0504 78.452 28.4761 79.6048 28.4761Z" fill="white"/>
<path d="M95.1262 32.5259C94.2136 32.5259 93.5172 32.2827 93.0368 31.7962C92.5565 31.3098 92.3164 30.6165 92.3164 29.7166V16.7643C92.3164 15.8643 92.5445 15.1833 93.0008 14.7211C93.4811 14.2347 94.1415 13.9914 94.9821 13.9914C95.8467 13.9914 96.5071 14.2347 96.9634 14.7211C97.4197 15.1833 97.6479 15.8643 97.6479 16.7643V18.6615H97.2876C97.5758 17.2021 98.2122 16.0711 99.1969 15.2684C100.182 14.4657 101.454 14.0157 103.015 13.9184C103.616 13.8698 104.072 14.0279 104.384 14.3928C104.721 14.7333 104.901 15.3049 104.925 16.1076C104.973 16.8616 104.817 17.4575 104.456 17.8953C104.12 18.3332 103.544 18.6007 102.727 18.698L101.899 18.771C100.53 18.8926 99.5091 19.2939 98.8366 19.975C98.1882 20.6561 97.864 21.6412 97.864 22.9303V29.7166C97.864 30.6165 97.6238 31.3098 97.1435 31.7962C96.6872 32.2827 96.0148 32.5259 95.1262 32.5259Z" fill="white"/>
<path d="M109.9 32.4895C109.011 32.4895 108.327 32.2341 107.847 31.7233C107.39 31.1881 107.162 30.4463 107.162 29.4977V17.0197C107.162 16.0468 107.39 15.3049 107.847 14.7941C108.327 14.259 109.011 13.9914 109.9 13.9914C110.764 13.9914 111.425 14.259 111.881 14.7941C112.361 15.3049 112.602 16.0468 112.602 17.0197V29.4977C112.602 30.4463 112.373 31.1881 111.917 31.7233C111.461 32.2341 110.788 32.4895 109.9 32.4895ZM109.9 10.9996C108.891 10.9996 108.111 10.7685 107.558 10.3064C107.03 9.81993 106.766 9.13887 106.766 8.26323C106.766 7.36326 107.03 6.6822 107.558 6.22005C108.111 5.73358 108.891 5.49034 109.9 5.49034C110.909 5.49034 111.677 5.73358 112.205 6.22005C112.734 6.6822 112.998 7.36326 112.998 8.26323C112.998 9.13887 112.734 9.81993 112.205 10.3064C111.677 10.7685 110.909 10.9996 109.9 10.9996Z" fill="white"/>
<path d="M123.574 32.5989C122.517 32.5989 121.424 32.5016 120.295 32.307C119.191 32.1124 118.182 31.7841 117.27 31.3219C116.789 31.0787 116.441 30.7746 116.225 30.4098C116.033 30.0206 115.949 29.6314 115.973 29.2423C115.997 28.8531 116.117 28.5004 116.333 28.1842C116.573 27.868 116.873 27.6612 117.233 27.5639C117.618 27.4423 118.038 27.4788 118.494 27.6734C119.479 28.0869 120.38 28.3788 121.196 28.549C122.013 28.7193 122.817 28.8044 123.61 28.8044C124.642 28.8044 125.387 28.6463 125.843 28.3301C126.323 27.9896 126.564 27.5518 126.564 27.0167C126.564 26.5302 126.407 26.1653 126.095 25.9221C125.783 25.6789 125.327 25.5086 124.726 25.4113L120.944 24.7181C119.455 24.4505 118.302 23.9033 117.486 23.0763C116.693 22.2249 116.297 21.1425 116.297 19.8291C116.297 18.6129 116.633 17.567 117.306 16.6913C117.978 15.7914 118.903 15.1103 120.079 14.6482C121.28 14.1617 122.637 13.9184 124.15 13.9184C125.231 13.9184 126.227 14.0157 127.14 14.2103C128.053 14.4049 128.929 14.7211 129.77 15.1589C130.202 15.3779 130.502 15.6697 130.67 16.0346C130.862 16.3994 130.922 16.7765 130.85 17.1656C130.802 17.5548 130.658 17.9075 130.418 18.2237C130.178 18.5399 129.866 18.7467 129.482 18.844C129.121 18.9413 128.701 18.8926 128.221 18.698C127.452 18.3332 126.744 18.0778 126.095 17.9318C125.447 17.7616 124.822 17.6764 124.222 17.6764C123.141 17.6764 122.361 17.8589 121.881 18.2237C121.4 18.5642 121.16 19.0021 121.16 19.5372C121.16 19.9507 121.292 20.3034 121.556 20.5953C121.845 20.8628 122.277 21.0452 122.853 21.1425L126.636 21.8358C128.197 22.1033 129.385 22.6384 130.202 23.4411C131.019 24.2195 131.427 25.2897 131.427 26.6518C131.427 28.5004 130.706 29.9598 129.265 31.03C127.848 32.076 125.951 32.5989 123.574 32.5989Z" fill="white"/>
<path d="M143.037 32.5989C141.38 32.5989 139.987 32.3192 138.859 31.7598C137.754 31.2003 136.925 30.3855 136.373 29.3152C135.845 28.245 135.58 26.895 135.58 25.2654V18.4061H134.068C133.395 18.4061 132.867 18.2237 132.482 17.8589C132.122 17.494 131.942 16.9954 131.942 16.363C131.942 15.6819 132.122 15.1711 132.482 14.8306C132.867 14.4657 133.395 14.2833 134.068 14.2833H135.58V11.5104C135.58 10.5861 135.821 9.8929 136.301 9.43076C136.781 8.94429 137.454 8.70105 138.318 8.70105C139.207 8.70105 139.879 8.94429 140.336 9.43076C140.792 9.8929 141.02 10.5861 141.02 11.5104V14.2833H144.442C145.115 14.2833 145.631 14.4657 145.991 14.8306C146.352 15.1711 146.532 15.6819 146.532 16.363C146.532 16.9954 146.352 17.494 145.991 17.8589C145.631 18.2237 145.115 18.4061 144.442 18.4061H141.02V25.0465C141.02 26.068 141.248 26.8342 141.705 27.345C142.185 27.8558 142.941 28.1112 143.974 28.1112C144.334 28.1112 144.67 28.0747 144.983 28.0018C145.295 27.9288 145.583 27.8801 145.847 27.8558C146.183 27.8315 146.46 27.941 146.676 28.1842C146.892 28.4031 147 28.9017 147 29.6801C147 30.2639 146.904 30.7747 146.712 31.2125C146.52 31.6503 146.183 31.9665 145.703 32.1611C145.391 32.2827 144.959 32.38 144.406 32.453C143.878 32.5503 143.422 32.5989 143.037 32.5989Z" fill="white"/>
</svg>
