<svg width="24" height="25" viewBox="0 0 24 25" fill="none" xmlns="http://www.w3.org/2000/svg">
<g clip-path="url(#clip0_220_11182)">
<path d="M24.4 22.6924H22.8V11.2058C22.8 10.7706 22.6314 10.3532 22.3314 10.0455C22.0313 9.73773 21.6244 9.56484 21.2 9.56484H14.8V4.64201C14.8002 4.34486 14.7217 4.05323 14.5729 3.79826C14.4241 3.54328 14.2106 3.33453 13.9552 3.19428C13.6998 3.05403 13.412 2.98754 13.1226 3.00192C12.8332 3.0163 12.553 3.11101 12.312 3.27592L4.31201 8.74437C4.09255 8.89454 3.9127 9.09803 3.78848 9.33673C3.66426 9.57543 3.59951 9.84193 3.60001 10.1125V22.6924H2.00001C1.78784 22.6924 1.58436 22.7788 1.43433 22.9327C1.2843 23.0866 1.20001 23.2953 1.20001 23.5129C1.20001 23.7305 1.2843 23.9392 1.43433 24.093C1.58436 24.2469 1.78784 24.3333 2.00001 24.3333H24.4C24.6122 24.3333 24.8157 24.2469 24.9657 24.093C25.1157 23.9392 25.2 23.7305 25.2 23.5129C25.2 23.2953 25.1157 23.0866 24.9657 22.9327C24.8157 22.7788 24.6122 22.6924 24.4 22.6924ZM21.2 11.2058V22.6924H14.8V11.2058H21.2ZM5.20001 10.1125L13.2 4.64201V22.6924H5.20001V10.1125ZM11.6 12.8467V14.4877C11.6 14.7053 11.5157 14.914 11.3657 15.0678C11.2157 15.2217 11.0122 15.3081 10.8 15.3081C10.5878 15.3081 10.3844 15.2217 10.2343 15.0678C10.0843 14.914 10 14.7053 10 14.4877V12.8467C10 12.6291 10.0843 12.4204 10.2343 12.2666C10.3844 12.1127 10.5878 12.0263 10.8 12.0263C11.0122 12.0263 11.2157 12.1127 11.3657 12.2666C11.5157 12.4204 11.6 12.6291 11.6 12.8467ZM8.40001 12.8467V14.4877C8.40001 14.7053 8.31573 14.914 8.1657 15.0678C8.01567 15.2217 7.81219 15.3081 7.60001 15.3081C7.38784 15.3081 7.18436 15.2217 7.03433 15.0678C6.8843 14.914 6.80001 14.7053 6.80001 14.4877V12.8467C6.80001 12.6291 6.8843 12.4204 7.03433 12.2666C7.18436 12.1127 7.38784 12.0263 7.60001 12.0263C7.81219 12.0263 8.01567 12.1127 8.1657 12.2666C8.31573 12.4204 8.40001 12.6291 8.40001 12.8467ZM8.40001 18.59V20.231C8.40001 20.4486 8.31573 20.6573 8.1657 20.8111C8.01567 20.965 7.81219 21.0514 7.60001 21.0514C7.38784 21.0514 7.18436 20.965 7.03433 20.8111C6.8843 20.6573 6.80001 20.4486 6.80001 20.231V18.59C6.80001 18.3724 6.8843 18.1637 7.03433 18.0099C7.18436 17.856 7.38784 17.7696 7.60001 17.7696C7.81219 17.7696 8.01567 17.856 8.1657 18.0099C8.31573 18.1637 8.40001 18.3724 8.40001 18.59ZM11.6 18.59V20.231C11.6 20.4486 11.5157 20.6573 11.3657 20.8111C11.2157 20.965 11.0122 21.0514 10.8 21.0514C10.5878 21.0514 10.3844 20.965 10.2343 20.8111C10.0843 20.6573 10 20.4486 10 20.231V18.59C10 18.3724 10.0843 18.1637 10.2343 18.0099C10.3844 17.856 10.5878 17.7696 10.8 17.7696C11.0122 17.7696 11.2157 17.856 11.3657 18.0099C11.5157 18.1637 11.6 18.3724 11.6 18.59Z" fill="white"/>
</g>
<defs>
<clipPath id="clip0_220_11182">
<rect width="24" height="24" fill="white" transform="translate(0 0.6)"/>
</clipPath>
</defs>
</svg>
