<svg width="24" height="25" viewBox="0 0 24 25" fill="none" xmlns="http://www.w3.org/2000/svg">
<path d="M19.5107 5.59628C18.8906 4.11609 17.8469 2.85213 16.5106 1.9632C15.1743 1.07426 13.6051 0.6 12 0.6C10.3949 0.6 8.8257 1.07426 7.4894 1.9632C6.1531 2.85213 5.10935 4.11609 4.48931 5.59628C3.15491 6.21411 2.02407 7.19908 1.22906 8.43596C0.434053 9.67284 0.00775364 11.1105 3.08028e-05 12.5807C-0.0117549 16.7393 3.36002 20.2079 7.51501 20.3151C8.77193 20.3479 10.0177 20.0716 11.1429 19.5106V23.743C11.1429 23.9703 11.2332 24.1883 11.3939 24.349C11.5547 24.5097 11.7727 24.6 12 24.6C12.2273 24.6 12.4453 24.5097 12.6061 24.349C12.7668 24.1883 12.8571 23.9703 12.8571 23.743V19.5106C13.9219 20.0415 15.0958 20.3169 16.2857 20.3151H16.485C20.64 20.2079 24.0118 16.7414 24 12.5829C23.9928 11.1122 23.5667 9.67407 22.7717 8.43675C21.9766 7.19943 20.8455 6.21416 19.5107 5.59628ZM16.4411 18.6011C15.2032 18.6356 13.9853 18.2836 12.9568 17.5941C12.9232 17.5727 12.89 17.5523 12.8571 17.5331V13.1314L17.5264 10.7982C17.6272 10.7478 17.717 10.6781 17.7908 10.5931C17.8646 10.508 17.9209 10.4092 17.9565 10.3024C17.9921 10.1955 18.0064 10.0827 17.9984 9.97041C17.9904 9.85808 17.9604 9.74842 17.91 9.64769C17.8596 9.54697 17.7899 9.45715 17.7048 9.38337C17.6197 9.30958 17.5209 9.25327 17.4141 9.21766C17.3072 9.18205 17.1944 9.16783 17.082 9.17582C16.9697 9.1838 16.86 9.21383 16.7593 9.26419L12.8571 11.216V8.31722C12.8571 8.08993 12.7668 7.87195 12.6061 7.71124C12.4453 7.55052 12.2273 7.46023 12 7.46023C11.7727 7.46023 11.5547 7.55052 11.3939 7.71124C11.2332 7.87195 11.1429 8.08993 11.1429 8.31722V13.7869L7.24073 11.8352C7.03727 11.7334 6.80173 11.7167 6.58593 11.7886C6.37013 11.8605 6.19174 12.0152 6.09001 12.2187C5.98829 12.4221 5.97155 12.6576 6.04348 12.8733C6.11541 13.0891 6.27013 13.2675 6.47359 13.3692L11.1429 15.7023V17.5298C11.1093 17.5491 11.0761 17.5695 11.0432 17.5909C10.0148 18.281 8.79707 18.634 7.55894 18.6011C6.20383 18.5672 4.90011 18.0756 3.86018 17.2063C2.82024 16.3369 2.10537 15.1412 1.83203 13.8137C1.55869 12.4862 1.74299 11.1054 2.3549 9.89602C2.96681 8.68668 3.97027 7.72014 5.2018 7.15386C5.5913 6.97543 5.89926 6.65682 6.0643 6.26152C6.55356 5.09244 7.37756 4.09406 8.43273 3.39188C9.48789 2.6897 10.7271 2.31507 11.9946 2.31507C13.2622 2.31507 14.5014 2.6897 15.5566 3.39188C16.6117 4.09406 17.4357 5.09244 17.925 6.26152C18.09 6.65682 18.398 6.97543 18.7875 7.15386C20.019 7.72014 21.0225 8.68668 21.6344 9.89602C22.2463 11.1054 22.4306 12.4862 22.1573 13.8137C21.8839 15.1412 21.169 16.3369 20.1291 17.2063C19.0892 18.0756 17.7855 18.5672 16.4303 18.6011H16.4411Z" fill="white"/>
</svg>
